<svg width="37" height="27" viewBox="0 0 37 27" fill="none" xmlns="http://www.w3.org/2000/svg">
<path d="M35.9895 24.5904C35.9678 24.5287 35.9424 24.4683 35.9135 24.4096L25.1277 2.61608C24.5737 1.33533 23.4198 0.413303 22.0483 0.155417C20.6769 -0.102468 19.2669 0.337452 18.2854 1.32945L15.6353 6.37521L9.27522 19.7715C8.22508 21.7955 6.56918 23.1357 4.59643 23.6049L14.335 3.99619C14.3545 3.9563 14.3725 3.91582 14.3891 3.87475C14.5483 3.51692 14.9035 3.28654 15.2951 3.28706C15.332 3.28769 15.3687 3.29041 15.4052 3.29522L17.007 0.44617C15.9808 -0.0113963 14.8141 -0.0388224 13.7675 0.370021C12.721 0.778864 11.8818 1.5899 11.4376 2.62191L0.640441 24.3653C0.623839 24.3965 0.608413 24.4282 0.593825 24.4611C0.353911 24.9922 0.390151 25.6073 0.690764 26.1066C0.991408 26.6059 1.51808 26.9257 2.09976 26.9621C2.39361 26.9866 2.69095 26.9988 2.98479 26.9988C6.8502 26.9988 10.2715 24.8388 12.1356 21.2198C12.1435 21.2043 12.1514 21.1889 12.1586 21.1729L18.2272 8.38902L18.2289 8.38494L18.2828 8.27195L20.0593 4.53991L20.0567 4.53438L20.324 3.97115C20.3352 3.94746 20.3458 3.92368 20.3557 3.8998C20.5095 3.52887 20.8715 3.28705 21.2731 3.28705C21.6746 3.28705 22.0366 3.52887 22.1905 3.8998C22.2036 3.93212 22.2196 3.96416 22.2338 3.99561L31.938 23.604C29.9792 23.1334 28.3315 21.7941 27.2828 19.7721L20.8962 6.30298L19.1329 10.0644L24.3988 21.1706C24.4064 21.1863 24.4142 21.2023 24.4221 21.218C26.3151 24.891 29.6397 26.9971 33.5464 26.9971C33.8549 26.9971 34.1671 26.9834 34.4743 26.9566C34.6688 26.9399 34.8587 26.8876 35.0343 26.8023C35.8887 26.4339 36.3075 25.4632 35.9892 24.589" fill="black"/>
</svg>
